<svg width="384" height="378" viewBox="0 0 384 378" fill="none" xmlns="http://www.w3.org/2000/svg">
<g clip-path="url(#clip0_23_2035)">
<path d="M384 0H0V378H384V0Z" fill="white"/>
<path d="M192 0H0V75.7096C0 75.7096 37.2864 70.0986 38.6081 103.926C39.9299 137.753 74.8308 129.299 86.4607 120.494C98.0913 111.688 118.606 130.208 106.862 143.417C95.1168 156.626 115.448 180.291 153.079 164.801C167.862 158.716 177.037 160.256 182.728 164.37C188.294 168.393 195.705 168.393 201.271 164.37C206.963 160.256 216.137 158.716 230.921 164.801C268.551 180.291 282.603 155.526 270.858 142.317C259.113 129.108 285.908 111.688 297.539 120.494C309.169 129.3 344.069 137.754 345.391 103.927C346.714 70.0986 384 75.7096 384 75.7096V0H192Z" fill="white"/>
<path d="M99.4844 326.353L110.176 337.434L113.387 323.894L99.4844 326.353Z" fill="#D16557"/>
<path d="M55.7261 50.5777L66.4174 61.6599L69.6292 48.1191L55.7261 50.5777Z" fill="#6F42C1" fill-opacity="0.25"/>
<path d="M339.782 143.102L350.474 154.184L353.686 140.644L339.782 143.102Z" fill="#6F42C1" fill-opacity="0.25"/>
<path d="M320.661 94.3866C320.661 96.8709 322.707 98.8848 325.231 98.8848C327.755 98.8848 329.801 96.8709 329.801 94.3866C329.801 91.9024 327.755 89.8877 325.231 89.8877C322.707 89.8885 320.661 91.9024 320.661 94.3866Z" fill="#6F42C1" fill-opacity="0.25"/>
<path d="M95.5884 72.8693C95.5884 75.3535 97.6343 77.3682 100.158 77.3682C102.682 77.3682 104.728 75.3543 104.728 72.8693C104.728 70.3851 102.682 68.3711 100.158 68.3711C97.6343 68.3711 95.5884 70.3851 95.5884 72.8693Z" fill="#D16557"/>
<path d="M326.872 293.979C326.872 296.463 328.918 298.478 331.442 298.478C333.966 298.478 336.012 296.464 336.012 293.979C336.012 291.494 333.966 289.48 331.442 289.48C328.918 289.48 326.872 291.494 326.872 293.979Z" fill="#D16557"/>
<path d="M243.595 41.2814C243.595 43.7656 245.641 45.7804 248.165 45.7804C250.688 45.7804 252.735 43.7664 252.735 41.2814C252.735 38.7972 250.689 36.7832 248.165 36.7832C245.641 36.7824 243.595 38.7964 243.595 41.2814Z" fill="#6F42C1"/>
<path d="M58.1077 188.999C58.1077 191.484 60.1536 193.498 62.678 193.498C65.2017 193.498 67.2476 191.484 67.2476 188.999C67.2476 186.515 65.2017 184.501 62.678 184.501C60.1536 184.5 58.1077 186.515 58.1077 188.999Z" fill="#6F42C1"/>
<path d="M236.904 213.92C236.904 214.889 237.702 215.674 238.687 215.674C239.671 215.674 240.469 214.889 240.469 213.92C240.469 212.951 239.671 212.165 238.687 212.165C237.702 212.166 236.904 212.951 236.904 213.92Z" fill="#6F42C1" fill-opacity="0.25"/>
<path d="M169.772 79.284C169.772 80.2532 170.57 81.0386 171.554 81.0386C172.539 81.0386 173.337 80.2532 173.337 79.284C173.337 78.3148 172.539 77.5293 171.554 77.5293C170.57 77.5293 169.772 78.3148 169.772 79.284Z" fill="#6F42C1" fill-opacity="0.25"/>
<path d="M131.738 27.2322C131.738 28.2014 132.536 28.9869 133.521 28.9869C134.505 28.9869 135.303 28.2014 135.303 27.2322C135.303 26.263 134.505 25.4775 133.521 25.4775C132.536 25.4775 131.738 26.263 131.738 27.2322Z" fill="#6F42C1" fill-opacity="0.25"/>
<path d="M200.353 277.354L199.277 276.038C196.812 273.023 197.297 268.612 200.36 266.186L207.972 260.156L217.974 272.391L210.361 278.421C207.298 280.846 202.818 280.369 200.353 277.354Z" fill="#D16557"/>
<path d="M317.054 192.091L306.936 179.714L208.542 259.588L218.659 271.965L317.054 192.091Z" fill="#F4C171"/>
<path d="M313.598 187.864L310.392 183.941L211.997 263.815L215.203 267.738L313.598 187.864Z" fill="#2C172D"/>
<path d="M207.269 260.605L217.386 272.982L232.685 260.865L222.567 248.487L207.269 260.605Z" fill="white"/>
<path d="M232.918 260.54L222.93 248.322C222.185 247.411 220.832 247.267 219.907 248C218.983 248.732 218.836 250.064 219.58 250.974L229.569 263.193C230.313 264.103 231.666 264.248 232.591 263.515C233.516 262.782 233.662 261.45 232.918 260.54Z" fill="white"/>
<path d="M219.409 271.24L209.421 259.021C208.676 258.111 207.323 257.966 206.398 258.699C205.474 259.431 205.327 260.763 206.071 261.674L216.06 273.892C216.804 274.802 218.157 274.947 219.082 274.214C220.007 273.482 220.153 272.15 219.409 271.24Z" fill="white"/>
<path d="M306.937 179.714L325.23 175.419L317.054 192.091L306.937 179.714Z" fill="#E29D88"/>
<path d="M325.23 175.419L322.864 180.244L319.936 176.662L325.23 175.419Z" fill="#2C172D"/>
<path d="M212.728 301.136C214.937 304.753 219.74 305.869 223.358 303.604L305.811 251.998L300.491 243.286L215.503 290.737C211.774 292.82 210.52 297.518 212.728 301.136Z" fill="#6F42C1" fill-opacity="0.25"/>
<path d="M307.01 248.415C307.01 248.415 319.071 252.523 326.442 245.481C333.813 238.44 336 231.228 346.733 224.915C346.733 224.915 314.56 212.358 304.176 243.773L307.01 248.415Z" fill="#2C172D"/>
<path d="M290.58 245.822L298.894 259.438L315.724 249.482L307.411 235.866L290.58 245.822Z" fill="white"/>
<path d="M316.009 249.184L307.802 235.742C307.191 234.74 305.87 234.417 304.853 235.018C303.835 235.62 303.507 236.921 304.118 237.921L312.325 251.364C312.936 252.366 314.257 252.689 315.274 252.087C316.291 251.486 316.62 250.186 316.009 249.184Z" fill="white"/>
<path d="M301.147 257.976L292.94 244.534C292.328 243.532 291.007 243.209 289.991 243.81C288.973 244.412 288.644 245.713 289.256 246.713L297.463 260.156C298.074 261.158 299.395 261.481 300.412 260.879C301.429 260.278 301.758 258.978 301.147 257.976Z" fill="white"/>
<path d="M333.327 237.473C336.693 233.11 340.062 228.839 346.734 224.915C346.734 224.915 334.942 220.315 323.333 223.654C322.789 225.717 323.663 227.694 326.448 228.586C330.798 229.979 328.245 233.265 327.654 235.598C327.201 237.383 330.811 236.462 333.327 237.473Z" fill="#D16557"/>
<path d="M24.8494 308.882H112.99L150.506 222.118H62.3654L24.8494 308.882Z" fill="#D16557"/>
<path d="M188.023 308.882H99.8823L83.3165 270.572L62.3655 222.118H150.507L188.023 308.882Z" fill="white"/>
<path d="M110.087 293.953L100.583 271.975L88.5649 244.179" stroke="#6F42C1" stroke-width="1.0996" stroke-miterlimit="10"/>
<path d="M129.631 293.953L120.128 271.975L108.109 244.179" stroke="#6F42C1" stroke-width="1.0996" stroke-miterlimit="10"/>
<path d="M149.176 293.953L139.673 271.975L127.654 244.179" stroke="#6F42C1" stroke-width="1.0996" stroke-miterlimit="10"/>
<path d="M168.72 293.953L159.217 271.975L147.199 244.179" stroke="#6F42C1" stroke-width="1.0996" stroke-miterlimit="10"/>
<path d="M75.1565 232.712C75.1565 234.93 76.9828 236.729 79.2369 236.729C81.4902 236.729 83.3173 234.93 83.3173 232.712C83.3173 230.494 81.4902 228.695 79.2369 228.695C76.9828 228.695 75.1565 230.494 75.1565 232.712Z" fill="#2C172D"/>
<path d="M77.068 232.496C77.7684 232.637 78.4941 232.712 79.2368 232.712C85.1803 232.712 89.998 227.969 89.998 222.118C89.998 216.268 85.1803 211.525 79.2368 211.525C73.2932 211.525 68.4756 216.268 68.4756 222.118" stroke="#2C172D" stroke-width="4.9898" stroke-miterlimit="10"/>
<path d="M105.01 232.712C105.01 234.93 106.837 236.729 109.091 236.729C111.344 236.729 113.171 234.93 113.171 232.712C113.171 230.494 111.345 228.695 109.091 228.695C106.837 228.695 105.01 230.494 105.01 232.712Z" fill="#2C172D"/>
<path d="M106.922 232.496C107.622 232.637 108.347 232.712 109.091 232.712C115.033 232.712 119.852 227.969 119.852 222.118C119.852 216.268 115.034 211.525 109.091 211.525C103.147 211.525 98.3293 216.268 98.3293 222.118" stroke="#2C172D" stroke-width="4.9898" stroke-miterlimit="10"/>
<path d="M137.253 236.729C139.506 236.729 141.333 234.93 141.333 232.712C141.333 230.494 139.506 228.695 137.253 228.695C134.999 228.695 133.172 230.494 133.172 232.712C133.172 234.93 134.999 236.729 137.253 236.729Z" fill="#2C172D"/>
<path d="M135.084 232.496C135.784 232.637 136.51 232.712 137.252 232.712C143.196 232.712 148.014 227.969 148.014 222.118C148.014 216.268 143.196 211.525 137.252 211.525C131.309 211.525 126.491 216.268 126.491 222.118" stroke="#2C172D" stroke-width="4.9898" stroke-miterlimit="10"/>
<path d="M87.678 258.463H157.96" stroke="#6F42C1" stroke-width="1.0996" stroke-miterlimit="10"/>
<path d="M95.6152 275.728H165.896" stroke="#6F42C1" stroke-width="1.0996" stroke-miterlimit="10"/>
<path d="M230.6 307.214L241.434 326.408L205.662 349.773C202.885 351.587 199.598 348.309 201.475 345.599L214.972 326.118L211.044 319.763L230.6 307.214Z" fill="#E29D88"/>
<path d="M245.908 329.635L237.151 314.123C237.151 314.123 221.85 324.901 219.608 325.381C217.366 325.86 217.73 319.191 208.377 325.341L210.794 329.25L192.884 355.1C190.393 358.696 194.755 363.045 198.44 360.638L245.908 329.635Z" fill="#2C172D"/>
<path d="M210.735 168.918C210.735 168.918 220.054 173.738 218.984 193.016C217.915 212.294 210.735 247.889 210.735 247.889L239.131 307.212C239.131 307.212 215.552 324.528 199.885 320.672C199.885 320.672 167.934 249.597 168.587 242.528C169.24 235.46 190.598 168.028 190.598 168.028L210.735 168.918Z" fill="#6F42C1"/>
<path d="M203.565 221.293L177.706 210.231C177.706 210.231 202.315 188.5 198.916 166.017L170.738 159.039C170.738 159.039 140.03 213.606 139.548 226.796C139.065 239.987 181.913 271.74 181.913 271.74L203.565 221.293Z" fill="#6F42C1"/>
<path d="M203.49 250.974C209.469 237.043 209.508 223.75 203.577 221.283C197.646 218.816 187.99 228.11 182.011 242.041C176.032 255.972 175.993 269.265 181.924 271.732C187.855 274.199 197.511 264.905 203.49 250.974Z" fill="#2C172D"/>
<path d="M224.595 242.312L186.35 233.686C186.35 233.686 178.811 242.018 177.705 257.584L210.916 266.243C210.916 266.243 210.936 263.732 213.206 262.458C215.477 261.185 231.453 259.731 224.595 242.312Z" fill="#E29D88"/>
<path d="M224.595 242.312C224.595 242.312 234.138 237.201 248.165 245.008C248.165 245.008 214.826 292.571 212.051 303.292C212.051 303.292 204.289 301.926 204.944 294.662C205.354 290.116 215.065 278.41 210.917 266.244C208.914 260.371 218.105 258.965 219.271 255.807C220.437 252.649 224.595 242.312 224.595 242.312Z" fill="#2C172D"/>
<path d="M236.357 277.902C246.33 261.807 251.616 247.08 248.165 245.007C244.714 242.935 233.832 254.303 223.86 270.398C213.887 286.492 208.601 301.22 212.052 303.291C215.502 305.364 226.385 293.996 236.357 277.902Z" fill="#D16557"/>
<path d="M186.802 259.956L177.705 257.584C177.705 257.584 178.323 242.344 186.35 233.686L193.322 235.258C193.322 235.258 185.652 245.927 186.802 259.956Z" fill="#D16557"/>
<path d="M147.576 96.615L156.81 54.8906H138.945C138.945 54.8906 120.315 88.1403 115.466 99.1499C110.616 110.16 123.633 115.938 133.586 118.45L147.576 96.615Z" fill="#E29D88"/>
<path d="M281.615 93.3345C281.615 93.3345 276.722 83.3545 277.882 73.0737C278.205 70.21 280.301 72.7554 280.492 75.3016C280.684 77.8478 281.869 82.7346 282.731 82.5721C283.594 82.4095 289.951 61.9355 289.951 61.9355C289.951 61.9355 294.477 62.7845 296.094 66.0724C296.094 66.0724 294.37 80.7577 295.124 80.6813C295.878 80.605 299.492 66.2395 301.697 66.6023C303.902 66.966 298.895 81.3474 299.434 82.1956C299.973 83.0438 303.935 73.398 305.469 73.869C307.002 74.34 300.49 89.0865 294.671 99.1481L281.615 93.3345Z" fill="#E29D88"/>
<path d="M293.087 63.1152L290.237 78.9194" stroke="#D16557" stroke-width="0.9217" stroke-miterlimit="10"/>
<path d="M294.671 99.1494C294.671 99.1494 293.174 159.715 287.507 161.639C281.839 163.563 266.205 159.33 264.25 154.136C262.296 148.942 281.615 93.335 281.615 93.335L294.671 99.1494Z" fill="#E29D88"/>
<path d="M218.984 105.993L208.649 127.374L198.917 124.52L205.476 111.571C205.476 111.571 213.161 110.999 218.984 105.993Z" fill="#E29D88"/>
<path d="M212.753 128.583L147.576 96.6133C147.576 96.6133 128.911 102.555 125.952 133.029L173.982 144.681L164.257 156.382C164.257 156.382 200.538 178.344 222.786 169.105L212.753 128.583Z" fill="#6F42C1" fill-opacity="0.25"/>
<mask id="mask0_23_2035" style="mask-type:luminance" maskUnits="userSpaceOnUse" x="125" y="96" width="98" height="76">
<path d="M212.753 128.583L147.576 96.6133C147.576 96.6133 128.911 102.555 125.952 133.029L173.982 144.681L164.257 156.382C164.257 156.382 200.538 178.344 222.786 169.105L212.753 128.583Z" fill="white"/>
</mask>
<g mask="url(#mask0_23_2035)">
<path d="M157.96 97.5254C157.96 97.5254 145.343 117.853 171.554 123.311C212.752 131.889 168.672 156.667 208.541 179.703" stroke="white" stroke-miterlimit="10"/>
</g>
<mask id="mask1_23_2035" style="mask-type:luminance" maskUnits="userSpaceOnUse" x="125" y="96" width="98" height="76">
<path d="M212.753 128.583L147.576 96.6133C147.576 96.6133 128.911 102.555 125.952 133.029L173.982 144.681L164.257 156.382C164.257 156.382 200.538 178.344 222.786 169.105L212.753 128.583Z" fill="white"/>
</mask>
<g mask="url(#mask1_23_2035)">
<path d="M171.554 101.785C171.554 101.785 161.473 116.683 178.814 118.448C203.758 120.987 194.903 140.307 212.752 131.888C230.602 123.47 198.917 88.8317 171.554 101.785Z" stroke="white" stroke-miterlimit="10"/>
</g>
<mask id="mask2_23_2035" style="mask-type:luminance" maskUnits="userSpaceOnUse" x="125" y="96" width="98" height="76">
<path d="M212.753 128.583L147.576 96.6133C147.576 96.6133 128.911 102.555 125.952 133.029L173.982 144.681L164.257 156.382C164.257 156.382 200.538 178.344 222.786 169.105L212.753 128.583Z" fill="white"/>
</mask>
<g mask="url(#mask2_23_2035)">
<path d="M157.219 154.17C165.136 154.17 171.554 147.852 171.554 140.059C171.554 132.265 165.136 125.947 157.219 125.947C149.302 125.947 142.883 132.265 142.883 140.059C142.883 147.852 149.302 154.17 157.219 154.17Z" stroke="white" stroke-miterlimit="10"/>
</g>
<mask id="mask3_23_2035" style="mask-type:luminance" maskUnits="userSpaceOnUse" x="125" y="96" width="98" height="76">
<path d="M212.753 128.583L147.576 96.6133C147.576 96.6133 128.911 102.555 125.952 133.029L173.982 144.681L164.257 156.382C164.257 156.382 200.538 178.344 222.786 169.105L212.753 128.583Z" fill="white"/>
</mask>
<g mask="url(#mask3_23_2035)">
<path d="M208.951 139.945C208.951 139.945 185.937 164.822 231.246 168.028" stroke="white" stroke-miterlimit="10"/>
</g>
<path d="M203.782 114.697L205.551 111.322C205.551 111.322 208.633 111.323 211.956 110.242C211.956 110.242 207.869 114.217 203.782 114.697Z" fill="#D16557"/>
<path d="M203.018 92.3649C201.956 95.8765 198.82 108.802 202.467 110.721C206.114 112.641 216.929 109.697 219.18 105.685C221.43 101.673 224.43 92.6144 221.692 89.6879C218.954 86.7607 205.402 84.4912 203.018 92.3649Z" fill="#E29D88"/>
<path d="M201.74 97.5254C201.74 97.5254 199.961 99.5779 199.423 100.142C198.886 100.707 200.956 102.328 200.956 102.328L201.74 97.5254Z" fill="#D16557"/>
<path d="M210.232 100.016C210.232 100.016 207.08 86.4576 218.833 86.5483C230.587 86.639 226.221 102.9 218.984 105.994L212.416 104.067C212.416 104.067 216.33 101.124 215.671 98.9467C215.012 96.7694 212.07 97.2706 210.232 100.016Z" fill="#2C172D"/>
<path d="M211.708 91.9248C211.708 91.9248 206.809 90.7205 205.062 97.0784C205.062 97.0784 203.714 96.2544 204.278 92.8312C204.278 92.8312 202.268 93.1147 200.638 96.0132C200.638 96.0132 198.579 87.3933 205.712 84.6528C212.845 81.9123 215.922 86.8558 215.922 86.8558L211.708 91.9248Z" fill="#2C172D"/>
<path d="M224.545 88.832C224.545 88.832 230.585 92.9099 232.642 105.368C235.445 122.346 254.049 104.824 258.127 130.812C260.077 143.24 291.213 135.395 291.242 162.302C291.262 179.599 273.896 168.511 264.061 182.488C259.825 188.507 259.033 204.344 234.945 196.508C210.857 188.673 225.519 168.26 217.978 161.044C210.437 153.827 195.195 140.336 203.783 128.583C212.37 116.83 221.003 111.757 212.416 104.066C219.873 99.1484 224.545 88.832 224.545 88.832Z" fill="#2C172D"/>
<path d="M226.535 107.895C226.535 107.895 226.964 119.477 238.687 121.021C250.409 122.565 249.085 133.384 251.717 138.523C258.126 151.042 269.497 135.692 275.511 155.768" stroke="#D16557" stroke-width="0.8247" stroke-miterlimit="10"/>
<path d="M218.984 119.799C218.984 119.799 219.414 131.382 231.136 132.925C242.859 134.47 241.535 145.288 244.166 150.427C250.576 162.945 261.946 147.596 267.961 167.673" stroke="#D16557" stroke-width="0.8247" stroke-miterlimit="10"/>
<path d="M258.126 130.812C261.117 139.879 276.913 139.097 288.011 145.297C296.907 150.268 303.096 161.031 294.912 175.199" stroke="#2C172D" stroke-width="0.6354" stroke-miterlimit="10"/>
<path d="M210.735 100.654C210.735 100.654 213.397 97.9228 214.562 98.8209C215.726 99.7183 211.624 103.122 211.624 103.122" stroke="#D16557" stroke-width="1.0219" stroke-miterlimit="10"/>
<path d="M215.577 88.3928L252.928 91.8318L228.908 68.7875L191.556 65.3477L215.577 88.3928Z" fill="#2C172D"/>
<path d="M205.644 85.1044C204.666 86.8833 208.304 90.0736 212.751 92.6448C218.046 95.7058 224.487 97.8899 225.652 95.7731L233.392 81.7077L213.383 71.0391L205.644 85.1044Z" fill="#2C172D"/>
<path d="M206.084 79.2852L215.577 88.3927L238.687 90.5201" stroke="#D16557" stroke-width="0.8247" stroke-miterlimit="10"/>
<path d="M249.22 90.1152C260.41 92.4067 243.881 103.899 253.539 109.093C265.282 115.409 273.424 103.611 279.279 123.964" stroke="#2C172D" stroke-width="0.6354" stroke-miterlimit="10"/>
<path d="M279.53 128.584L283.248 127.523C283.248 127.523 280.85 122.557 278.603 123.41C276.356 124.263 279.53 128.584 279.53 128.584Z" fill="#2C172D"/>
<path d="M147.695 44.1504C147.695 44.1504 131.876 47.9039 117.955 46.243C117.955 46.243 115.003 55.1706 121.646 59.5305C121.646 59.5305 131.198 53.2201 149.97 50.0479L147.695 44.1504Z" fill="#F4C171"/>
<path d="M138.945 54.8899L144.411 41.1496C144.411 41.1496 162.635 35.8916 163.264 35.8916C163.892 35.8916 167.11 42.6994 168.095 48.9961C168.409 51.0063 164.094 54.8793 163.101 54.8899C161.536 54.9058 156.81 54.8899 156.81 54.8899H138.945Z" fill="#E29D88"/>
<path d="M161.845 44.1504C161.845 44.1504 163.391 48.9593 163.391 49.1423C163.391 49.3252 160.979 51.151 160.979 51.151L158.312 44.8482" stroke="#D16557" stroke-width="0.8247" stroke-miterlimit="10"/>
<path d="M192.577 48.973C196.309 48.973 199.333 42.3433 199.333 34.1652C199.333 25.9871 196.309 19.3574 192.577 19.3574C188.846 19.3574 185.821 25.9871 185.821 34.1652C185.821 42.3433 188.846 48.973 192.577 48.973Z" fill="#F4C171"/>
<path d="M189.31 21.2051C189.31 21.2051 174.864 38.0578 161.464 42.8426C160.369 43.2334 159.694 44.3122 159.872 45.4462C160.062 46.6543 161.146 47.5229 162.386 47.4549C167.459 47.1775 180.558 46.7677 192.578 48.973L189.31 21.2051Z" fill="#F4C171"/>
<path d="M193.58 21.2051C189.144 22.3587 184.948 40.2963 190.793 45.8718C198.18 52.917 198.363 26.2521 195.725 24.7175C193.088 23.1835 189.956 31.6371 192.578 41.2255" stroke="#D16557" stroke-width="1.0996" stroke-miterlimit="10" stroke-linecap="round"/>
<path d="M201.175 330.683C203.091 330.683 205.345 330.762 207.291 330.851C203.755 332.949 199.898 335.099 198.651 335.411C198.264 335.508 197.874 335.556 197.49 335.556C196.099 335.556 194.962 334.91 194.724 333.985C194.408 332.76 195.673 331.343 197.487 330.89C197.798 330.813 198.691 330.683 201.175 330.683ZM201.175 329.248C199.387 329.248 197.873 329.315 197.129 329.501C194.501 330.156 192.792 332.323 193.312 334.339C193.729 335.961 195.462 336.992 197.491 336.992C197.985 336.992 198.496 336.931 199.01 336.803C201.638 336.147 211.998 329.676 211.998 329.676C211.998 329.676 205.705 329.248 201.175 329.248Z" fill="white"/>
<path d="M206.697 315.245C207.877 315.245 209.05 316.463 209.424 318.077C209.71 319.311 209.52 323.673 209.232 327.729C207.185 324.199 205.091 320.349 204.805 319.115C204.389 317.32 205.094 315.566 206.346 315.284C206.461 315.258 206.58 315.245 206.697 315.245ZM206.697 313.811C206.472 313.811 206.247 313.835 206.022 313.885C203.962 314.348 202.781 316.832 203.384 319.434C203.988 322.035 210.312 332.385 210.312 332.385C210.312 332.385 211.448 320.358 210.844 317.757C210.308 315.44 208.535 313.811 206.697 313.811Z" fill="white"/>
<path d="M211.859 328.554C210.675 327.841 209.129 328.208 208.404 329.373C207.68 330.538 208.053 332.061 209.236 332.774C210.42 333.486 211.966 333.12 212.691 331.955C213.415 330.789 213.042 329.267 211.859 328.554Z" fill="white"/>
<path d="M201.89 269.382C203.806 269.382 206.06 269.461 208.005 269.55C204.469 271.649 200.612 273.799 199.366 274.11C198.98 274.206 198.589 274.255 198.205 274.255C196.815 274.255 195.677 273.61 195.439 272.685C195.123 271.46 196.388 270.043 198.202 269.59C198.513 269.513 199.407 269.382 201.89 269.382ZM201.89 267.947C200.101 267.947 198.587 268.014 197.843 268.2C195.216 268.855 193.507 271.022 194.026 273.038C194.444 274.66 196.176 275.691 198.205 275.691C198.699 275.691 199.21 275.63 199.725 275.502C202.352 274.847 212.712 268.375 212.712 268.375C212.712 268.375 206.42 267.947 201.89 267.947Z" fill="white"/>
<path d="M207.412 253.945C208.592 253.945 209.765 255.162 210.139 256.776C210.425 258.01 210.235 262.373 209.947 266.428C207.9 262.898 205.806 259.048 205.52 257.814C205.303 256.879 205.383 255.914 205.74 255.165C205.915 254.795 206.321 254.15 207.061 253.983C207.176 253.958 207.294 253.945 207.412 253.945ZM207.412 252.51C207.187 252.51 206.961 252.534 206.737 252.585C204.677 253.047 203.496 255.532 204.099 258.133C204.703 260.734 211.027 271.084 211.027 271.084C211.027 271.084 212.163 259.057 211.559 256.456C211.023 254.139 209.249 252.51 207.412 252.51Z" fill="white"/>
<path d="M212.574 267.254C211.39 266.541 209.844 266.907 209.119 268.072C208.395 269.237 208.768 270.76 209.951 271.473C211.135 272.186 212.681 271.819 213.406 270.654C214.13 269.489 213.757 267.966 212.574 267.254Z" fill="white"/>
<path d="M203.565 221.292L166.035 206.548" stroke="#2C172D" stroke-width="1.0996" stroke-miterlimit="10"/>
<path d="M197.888 179.703C197.888 179.703 200.443 201.231 178.814 211.569" stroke="#2C172D" stroke-width="1.0996" stroke-miterlimit="10"/>
<path d="M176.39 162.111C176.39 162.111 143.013 215.005 147.521 226.45C152.029 237.896 177.706 252.509 177.706 252.509" stroke="white" stroke-width="1.0996" stroke-miterlimit="10"/>
<path d="M173.981 144.683L184.8 146.586L168.048 151.822L173.981 144.683Z" fill="#2C172D"/>
<path d="M153.528 99.5332C153.528 99.5332 132.108 113.463 136.722 135.643" stroke="#2C172D" stroke-width="1.0996" stroke-miterlimit="10"/>
<path d="M107.697 152.383C116.995 146.172 116.874 130.028 107.427 116.326C97.9803 102.623 82.785 96.5497 73.4874 102.761C64.1898 108.972 64.3107 125.115 73.7574 138.818C83.2041 152.521 98.3994 158.594 107.697 152.383Z" fill="white"/>
<path d="M105.119 148.643C113.015 143.369 112.912 129.659 104.889 118.021C96.8662 106.384 83.9616 101.226 76.0656 106.501C68.1697 111.776 68.2725 125.486 76.2953 137.123C84.318 148.76 97.2227 153.918 105.119 148.643Z" fill="white"/>
<path d="M102.685 119.457C95.2219 108.632 83.0721 103.724 74.4958 107.664C74.9812 107.201 75.5035 106.773 76.071 106.394C83.9837 101.108 96.9168 106.277 104.957 117.939C112.997 129.601 113.101 143.34 105.187 148.627C104.619 149.007 104.023 149.326 103.406 149.599C110.294 143.209 110.148 130.282 102.685 119.457Z" fill="#2C172D"/>
<path d="M109.169 151.411C99.8706 157.623 84.6742 151.549 75.227 137.846C65.7791 124.143 65.6577 107.998 74.9559 101.786L62.7639 109.931C53.4657 116.142 53.5871 132.286 63.035 145.99C72.4829 159.693 87.6786 165.767 96.9768 159.556L109.169 151.411Z" fill="#2C172D"/>
<path d="M131.761 198.643C127.29 201.63 122.741 202.644 121.692 200.889L96.9768 159.556L107.709 152.387L137.601 190.261C138.87 191.87 136.232 195.656 131.761 198.643Z" fill="#2C172D"/>
</g>
<defs>
<clipPath id="clip0_23_2035">
<rect width="384" height="378" fill="white"/>
</clipPath>
</defs>
</svg>
